<svg width="800" height="600" xmlns="http://www.w3.org/2000/svg">
  <rect width="800" height="600" fill="#f9f5f0"/>
  <rect width="800" height="60" fill="#1a1a1a"/>
  <text x="400" y="38" font-family="Georgia,serif" font-size="18" fill="#c9a96e" text-anchor="middle" letter-spacing="4">SPLENDIDTECH</text>
  <text x="120" y="38" font-family="Arial" font-size="11" fill="#888" text-anchor="middle">HOME</text>
  <text x="220" y="38" font-family="Arial" font-size="11" fill="#888" text-anchor="middle">CATALOG</text>
  <text x="580" y="38" font-family="Arial" font-size="11" fill="#888" text-anchor="middle">CONTACT</text>
  <text x="680" y="38" font-family="Arial" font-size="11" fill="#888" text-anchor="middle">CART (0)</text>
  <rect x="40" y="80" width="340" height="400" rx="8" fill="#e8ddd0"/>
  <ellipse cx="210" cy="280" rx="80" ry="80" fill="none" stroke="#c9a96e" stroke-width="1.5"/>
  <text x="210" y="285" font-family="Georgia,serif" font-size="12" fill="#c9a96e" text-anchor="middle">Product Image</text>
  <rect x="40" y="495" width="75" height="55" rx="4" fill="#ddd2c5"/>
  <rect x="128" y="495" width="75" height="55" rx="4" fill="#ddd2c5"/>
  <rect x="216" y="495" width="75" height="55" rx="4" fill="#ddd2c5"/>
  <rect x="304" y="495" width="75" height="55" rx="4" fill="#ddd2c5"/>
  <text x="420" y="120" font-family="Arial" font-size="10" fill="#888" letter-spacing="2">GOLD COLLECTION</text>
  <text x="420" y="158" font-family="Georgia,serif" font-size="24" fill="#1a1a1a">Diamond Solitaire</text>
  <text x="420" y="190" font-family="Georgia,serif" font-size="24" fill="#1a1a1a">Ring</text>
  <text x="420" y="228" font-family="Georgia,serif" font-size="20" fill="#c9a96e">&#163; 249.00</text>
  <line x1="420" y1="248" x2="750" y2="248" stroke="#ddd" stroke-width="1"/>
  <text x="420" y="278" font-family="Arial" font-size="11" fill="#666">Size</text>
  <rect x="420" y="288" width="40" height="30" rx="4" fill="#1a1a1a"/>
  <text x="440" y="308" font-family="Arial" font-size="10" fill="#fff" text-anchor="middle">S</text>
  <rect x="468" y="288" width="40" height="30" rx="4" fill="none" stroke="#ccc" stroke-width="1"/>
  <text x="488" y="308" font-family="Arial" font-size="10" fill="#666" text-anchor="middle">M</text>
  <rect x="516" y="288" width="40" height="30" rx="4" fill="none" stroke="#ccc" stroke-width="1"/>
  <text x="536" y="308" font-family="Arial" font-size="10" fill="#666" text-anchor="middle">L</text>
  <rect x="420" y="342" width="320" height="48" rx="24" fill="#1a1a1a"/>
  <text x="580" y="372" font-family="Arial" font-size="13" fill="#fff" text-anchor="middle">Add to Cart</text>
  <text x="420" y="422" font-family="Arial" font-size="11" fill="#888">A timeless solitaire ring crafted from</text>
  <text x="420" y="442" font-family="Arial" font-size="11" fill="#888">18k gold with a certified diamond.</text>
  <text x="420" y="478" font-family="Arial" font-size="11" fill="#c9a96e">Size Guide</text>
  <text x="505" y="478" font-family="Arial" font-size="11" fill="#c9a96e">Care Instructions</text>
</svg>
