<svg width="800" height="600" xmlns="http://www.w3.org/2000/svg">
  <rect width="800" height="600" fill="#f9f5f0"/>
  <rect width="800" height="60" fill="#1a1a1a"/>
  <text x="400" y="38" font-family="Georgia,serif" font-size="18" fill="#c9a96e" text-anchor="middle" letter-spacing="4">SPLENDIDTECH</text>
  <text x="120" y="38" font-family="Arial" font-size="11" fill="#888" text-anchor="middle">HOME</text>
  <text x="220" y="38" font-family="Arial" font-size="11" fill="#888" text-anchor="middle">CATALOG</text>
  <text x="580" y="38" font-family="Arial" font-size="11" fill="#888" text-anchor="middle">CONTACT</text>
  <text x="680" y="38" font-family="Arial" font-size="11" fill="#888" text-anchor="middle">CART (0)</text>
  <rect x="40" y="80" width="440" height="300" rx="8" fill="#e8ddd0"/>
  <ellipse cx="260" cy="230" rx="60" ry="60" fill="none" stroke="#c9a96e" stroke-width="1.5"/>
  <text x="260" y="237" font-family="Georgia,serif" font-size="11" fill="#c9a96e" text-anchor="middle">Preview</text>
  <text x="515" y="135" font-family="Arial" font-size="10" fill="#888" letter-spacing="2">LUSTRE JEWELLERY</text>
  <text x="515" y="172" font-family="Georgia,serif" font-size="22" fill="#1a1a1a" font-weight="bold">LUXURY PIECES</text>
  <text x="515" y="202" font-family="Georgia,serif" font-size="22" fill="#1a1a1a" font-weight="bold">FOR EVERYDAY</text>
  <text x="515" y="232" font-family="Georgia,serif" font-size="22" fill="#1a1a1a" font-weight="bold">GLOW</text>
  <text x="515" y="265" font-family="Arial" font-size="11" fill="#666">Designed for jewellery brands:</text>
  <text x="515" y="285" font-family="Arial" font-size="11" fill="#666">big visuals, clean layout,</text>
  <text x="515" y="305" font-family="Arial" font-size="11" fill="#666">conversion-first product pages.</text>
  <rect x="515" y="325" width="140" height="36" rx="18" fill="#1a1a1a"/>
  <text x="585" y="348" font-family="Arial" font-size="11" fill="#fff" text-anchor="middle">Shop Collection</text>
  <text x="400" y="420" font-family="Georgia,serif" font-size="14" fill="#1a1a1a" text-anchor="middle" letter-spacing="2">SHOP BY COLLECTION</text>
  <rect x="40" y="440" width="220" height="130" rx="6" fill="#e8ddd0"/>
  <rect x="290" y="440" width="220" height="130" rx="6" fill="#e8ddd0"/>
  <rect x="540" y="440" width="220" height="130" rx="6" fill="#e8ddd0"/>
  <text x="150" y="512" font-family="Georgia,serif" font-size="11" fill="#a89070" text-anchor="middle">Rings</text>
  <text x="400" y="512" font-family="Georgia,serif" font-size="11" fill="#a89070" text-anchor="middle">Necklaces</text>
  <text x="650" y="512" font-family="Georgia,serif" font-size="11" fill="#a89070" text-anchor="middle">Earrings</text>
</svg>
